<mxfile host="app.diagrams.net" modified="2023-08-25T08:37:55.130Z" agent="Mozilla/5.0 (Windows NT 10.0; Win64; x64; rv:109.0) Gecko/20100101 Firefox/116.0" version="21.6.9" etag="8dQ-OHnQxvfTGcpFsmqJ" type="github">
  <diagram name="Page-1" id="n_lXfKEMTj0Z2ydD4iag">
    <mxGraphModel>
      <root>
        <mxCell id="0" />
        <mxCell id="1" parent="0" />
      </root>
    </mxGraphModel>
  </diagram>
</mxfile>
